<svg xmlns="http://www.w3.org/2000/svg" viewBox="0 0 1200 800">
  <defs>
    <linearGradient id="g" x1="0" y1="0" x2="1" y2="1">
      <stop offset="0" stop-color="#0f172a"/>
      <stop offset="1" stop-color="#1e293b"/>
    </linearGradient>
    <linearGradient id="c" x1="0" y1="0" x2="0" y2="1">
      <stop offset="0" stop-color="#e5e7eb" stop-opacity=".38"/>
      <stop offset="1" stop-color="#94a3b8" stop-opacity=".16"/>
    </linearGradient>
  </defs>
  <rect width="1200" height="800" fill="url(#g)"/>
  <rect x="160" y="80" width="880" height="90" rx="22" fill="#334155" opacity=".55"/>
  <g opacity=".75">
    <path d="M230 170 C260 260 210 370 245 500 C270 590 225 665 245 760" stroke="url(#c)" stroke-width="44" fill="none"/>
    <path d="M340 170 C370 280 315 390 350 520 C375 610 335 675 350 760" stroke="url(#c)" stroke-width="44" fill="none"/>
    <path d="M450 170 C480 270 430 390 465 515 C490 610 445 690 465 760" stroke="url(#c)" stroke-width="44" fill="none"/>
    <path d="M560 170 C590 290 535 395 570 525 C595 615 555 690 570 760" stroke="url(#c)" stroke-width="44" fill="none"/>
    <path d="M670 170 C700 270 650 390 685 510 C710 610 670 685 685 760" stroke="url(#c)" stroke-width="44" fill="none"/>
    <path d="M780 170 C810 290 760 400 795 530 C820 610 780 690 795 760" stroke="url(#c)" stroke-width="44" fill="none"/>
    <path d="M890 170 C920 270 870 390 905 515 C930 600 890 685 905 760" stroke="url(#c)" stroke-width="44" fill="none"/>
    <path d="M1000 170 C1030 290 980 405 1015 525 C1040 620 1000 690 1015 760" stroke="url(#c)" stroke-width="44" fill="none"/>
  </g>
  <circle cx="970" cy="120" r="22" fill="#60a5fa" opacity=".75"/>
  <circle cx="1030" cy="120" r="22" fill="#22c55e" opacity=".72"/>
</svg>
